REM DIRINDEX 1\2,1\3,1\4,1\5
REM DIRNAME cjc005,folder01,folder02,folder03,folder04
TITLE ""
FILE "P1Q_t_0412-0421.mp3" MP3
  TRACK 01 AUDIO
    TITLE "3:cjc005_2138"
    INDEX 01 00:00:00
  TRACK 02 AUDIO
    TITLE "0:"
    INDEX 01 00:00:72
  TRACK 03 AUDIO
    TITLE "4:cjc005_2139"
    INDEX 01 00:01:26
  TRACK 04 AUDIO
    TITLE "0:"
    INDEX 01 00:02:53
  TRACK 05 AUDIO
    TITLE "5:cjc005_2140"
    INDEX 01 00:03:02
  TRACK 06 AUDIO
    TITLE "0:"
    INDEX 01 00:08:54
  TRACK 07 AUDIO
    TITLE "3:cjc005_2141"
    INDEX 01 00:09:30
  TRACK 08 AUDIO
    TITLE "0:"
    INDEX 01 00:10:43
  TRACK 09 AUDIO
    TITLE "4:cjc005_2142"
    INDEX 01 00:10:66
  TRACK 10 AUDIO
    TITLE "0:"
    INDEX 01 00:12:09
  TRACK 11 AUDIO
    TITLE "5:cjc005_2143"
    INDEX 01 00:12:34
  TRACK 12 AUDIO
    TITLE "0:"
    INDEX 01 00:18:23
  TRACK 13 AUDIO
    TITLE "3:cjc005_2144"
    INDEX 01 00:19:07
  TRACK 14 AUDIO
    TITLE "0:"
    INDEX 01 00:20:24
  TRACK 15 AUDIO
    TITLE "4:cjc005_2145"
    INDEX 01 00:20:51
  TRACK 16 AUDIO
    TITLE "0:"
    INDEX 01 00:22:60
  TRACK 17 AUDIO
    TITLE "5:cjc005_2146"
    INDEX 01 00:23:08
  TRACK 18 AUDIO
    TITLE "0:"
    INDEX 01 00:26:18
  TRACK 19 AUDIO
    TITLE "3:cjc005_2147"
    INDEX 01 00:26:69
  TRACK 20 AUDIO
    TITLE "0:"
    INDEX 01 00:28:04
  TRACK 21 AUDIO
    TITLE "4:cjc005_2148"
    INDEX 01 00:28:47
  TRACK 22 AUDIO
    TITLE "0:"
    INDEX 01 00:30:10
  TRACK 23 AUDIO
    TITLE "5:cjc005_2149"
    INDEX 01 00:30:34
  TRACK 24 AUDIO
    TITLE "0:"
    INDEX 01 00:33:17
  TRACK 25 AUDIO
    TITLE "3:cjc005_2150"
    INDEX 01 00:33:71
  TRACK 26 AUDIO
    TITLE "0:"
    INDEX 01 00:35:15
  TRACK 27 AUDIO
    TITLE "4:cjc005_2151"
    INDEX 01 00:35:43
  TRACK 28 AUDIO
    TITLE "0:"
    INDEX 01 00:36:64
  TRACK 29 AUDIO
    TITLE "5:cjc005_2152"
    INDEX 01 00:37:20
  TRACK 30 AUDIO
    TITLE "0:"
    INDEX 01 00:41:22
  TRACK 31 AUDIO
    TITLE "3:cjc005_2153"
    INDEX 01 00:41:71
  TRACK 32 AUDIO
    TITLE "0:"
    INDEX 01 00:43:05
  TRACK 33 AUDIO
    TITLE "4:cjc005_2154"
    INDEX 01 00:43:31
  TRACK 34 AUDIO
    TITLE "0:"
    INDEX 01 00:44:50
  TRACK 35 AUDIO
    TITLE "5:cjc005_2155"
    INDEX 01 00:44:71
  TRACK 36 AUDIO
    TITLE "0:"
    INDEX 01 00:49:27
  TRACK 37 AUDIO
    TITLE "3:cjc005_2156"
    INDEX 01 00:50:01
  TRACK 38 AUDIO
    TITLE "0:"
    INDEX 01 00:51:18
  TRACK 39 AUDIO
    TITLE "4:cjc005_2157"
    INDEX 01 00:51:44
  TRACK 40 AUDIO
    TITLE "0:"
    INDEX 01 00:52:65
  TRACK 41 AUDIO
    TITLE "5:cjc005_2158"
    INDEX 01 00:53:15
  TRACK 42 AUDIO
    TITLE "0:"
    INDEX 01 00:56:45
  TRACK 43 AUDIO
    TITLE "3:cjc005_2159"
    INDEX 01 00:57:29
  TRACK 44 AUDIO
    TITLE "0:"
    INDEX 01 00:58:38
  TRACK 45 AUDIO
    TITLE "4:cjc005_2160"
    INDEX 01 00:58:67
  TRACK 46 AUDIO
    TITLE "0:"
    INDEX 01 01:00:04
  TRACK 47 AUDIO
    TITLE "5:cjc005_2161"
    INDEX 01 01:00:31
  TRACK 48 AUDIO
    TITLE "0:"
    INDEX 01 01:04:17
  TRACK 49 AUDIO
    TITLE "3:cjc005_2162"
    INDEX 01 01:04:74
  TRACK 50 AUDIO
    TITLE "0:"
    INDEX 01 01:06:12
  TRACK 51 AUDIO
    TITLE "4:cjc005_2163"
    INDEX 01 01:06:38
  TRACK 52 AUDIO
    TITLE "0:"
    INDEX 01 01:07:53
  TRACK 53 AUDIO
    TITLE "5:cjc005_2164"
    INDEX 01 01:08:03
  TRACK 54 AUDIO
    TITLE "0:"
    INDEX 01 01:11:68
  TRACK 55 AUDIO
    TITLE "3:cjc005_2165"
    INDEX 01 01:12:54
  TRACK 56 AUDIO
    TITLE "0:"
    INDEX 01 01:13:55
  TRACK 57 AUDIO
    TITLE "4:cjc005_2166"
    INDEX 01 01:14:12
  TRACK 58 AUDIO
    TITLE "0:"
    INDEX 01 01:15:48
  TRACK 59 AUDIO
    TITLE "5:cjc005_2167"
    INDEX 01 01:15:68
  TRACK 60 AUDIO
    TITLE "0:"
    INDEX 01 01:18:66
